<svg width="56" height="56" viewBox="0 0 56 56" fill="none" xmlns="http://www.w3.org/2000/svg">
<path d="M0 52H56V56H0V52Z" fill="black"/>
<path d="M50 18C50.5304 18 51.0391 17.7893 51.4142 17.4142C51.7893 17.0391 52 16.5304 52 16V10C51.9998 9.58898 51.873 9.18798 51.6368 8.85159C51.4006 8.5152 51.0665 8.25975 50.68 8.12L28.68 0.120004C28.2406 -0.0388619 27.7594 -0.0388619 27.32 0.120004L5.32 8.12C4.93346 8.25975 4.59936 8.5152 4.36317 8.85159C4.12698 9.18798 4.00017 9.58898 4 10V16C4 16.5304 4.21071 17.0391 4.58579 17.4142C4.96086 17.7893 5.46957 18 6 18H8V44H4V48H52V44H48V18H50ZM8 11.4L28 4.12L48 11.4V14H8V11.4ZM32 44H24V18H32V44ZM12 18H20V44H12V18ZM44 44H36V18H44V44Z" fill="black"/>
</svg>
