<svg width="10" height="17" viewBox="0 0 10 17" fill="none" xmlns="http://www.w3.org/2000/svg">
<path d="M8.8373 0.801514H1.1627C0.523313 0.801514 0 1.29348 0 1.89561V15.9054C0 16.5076 0.523313 17 1.1627 17H8.8373C9.47669 17 10 16.5085 10 15.9059V1.89561C10 1.29348 9.47669 0.801514 8.8373 0.801514ZM3.77238 1.59015H6.22762C6.30533 1.59015 6.36829 1.64939 6.36829 1.72298C6.36829 1.7961 6.30533 1.85534 6.22762 1.85534H3.77238C3.69467 1.85534 3.63171 1.7961 3.63171 1.72298C3.63171 1.64939 3.69467 1.59015 3.77238 1.59015ZM5 16.453C4.67883 16.453 4.41865 16.2081 4.41865 15.9054C4.41865 15.6028 4.67883 15.3584 5 15.3584C5.32117 15.3584 5.58135 15.6028 5.58135 15.9054C5.58135 16.2081 5.32117 16.453 5 16.453ZM9.19093 14.9752H0.809069V2.5366H9.19093V14.9752Z" fill="#005FA3"/>
</svg>
